<?xml version="1.0" standalone="no"?>
<!DOCTYPE svg PUBLIC "-//W3C//DTD SVG 20010904//EN"
 "http://www.w3.org/TR/2001/REC-SVG-20010904/DTD/svg10.dtd">
<svg version="1.0" xmlns="http://www.w3.org/2000/svg"
 width="500.000000pt" height="500.000000pt" viewBox="0 0 500.000000 500.000000"
 preserveAspectRatio="xMidYMid meet">
<metadata>
Created by potrace 1.14, written by Peter Selinger 2001-2017
</metadata>
<g transform="translate(0.000000,500.000000) scale(0.100000,-0.100000)"
fill="#000000" stroke="none">
<path d="M1760 3792 c0 -5 128 -393 285 -863 l285 -853 0 -463 0 -463 60 0 60
0 0 -85 0 -85 180 0 180 0 0 468 0 467 284 853 c191 571 281 855 273 857 -7 3
-49 6 -94 7 l-81 3 24 75 c13 41 24 78 24 83 0 4 -76 7 -170 7 l-169 0 -29
-92 c-212 -684 -328 -1048 -332 -1048 -3 0 -59 170 -124 378 -66 207 -135 425
-154 484 l-34 107 -39 3 -40 3 -27 80 -27 80 -167 3 c-93 1 -168 -1 -168 -6z"/>
<path d="M1053 2608 l-463 -332 0 -172 0 -172 65 -43 c63 -43 64 -45 65 -89
l0 -45 461 -325 c253 -179 465 -326 470 -328 5 -2 9 70 9 175 l-1 178 -64 45
c-59 41 -65 48 -65 81 0 36 -3 39 -240 210 -132 96 -240 176 -240 180 0 3 137
104 305 225 l304 219 1 178 c0 97 -3 177 -7 177 -4 0 -33 -18 -65 -41 l-58
-40 0 125 c0 69 -3 126 -7 125 -5 0 -216 -149 -470 -331z"/>
<path d="M3470 2767 l0 -174 65 -44 c63 -43 65 -45 65 -89 l1 -45 239 -170
c131 -93 239 -173 239 -176 1 -4 -136 -106 -304 -229 l-305 -222 0 -169 c0
-93 3 -169 7 -169 4 0 33 18 65 41 l58 40 0 -130 c0 -72 2 -131 4 -131 3 0
213 148 468 328 l463 328 2 180 3 179 -65 44 c-59 41 -64 46 -67 85 l-3 41
-460 327 c-253 180 -463 327 -467 327 -5 1 -8 -77 -8 -172z"/>
</g>
</svg>
